<?xml version="1.0" standalone="no"?>
<!DOCTYPE svg PUBLIC "-//W3C//DTD SVG 20010904//EN"
 "http://www.w3.org/TR/2001/REC-SVG-20010904/DTD/svg10.dtd">
<svg version="1.0" xmlns="http://www.w3.org/2000/svg"
 width="378.000000pt" height="378.000000pt" viewBox="0 0 378.000000 378.000000"
 preserveAspectRatio="xMidYMid meet">
<metadata>
Created by potrace 1.14, written by Peter Selinger 2001-2017
</metadata>
<g transform="translate(0.000000,378.000000) scale(0.100000,-0.100000)"
fill="#000000" stroke="none">
<path d="M1655 3745 c-637 -90 -1161 -460 -1444 -1021 -70 -139 -142 -347
-165 -474 -2 -14 -7 -41 -10 -60 -3 -19 -9 -48 -12 -65 -13 -70 -13 -383 1
-485 95 -692 547 -1265 1194 -1515 224 -87 413 -120 676 -120 173 0 252 8 378
35 395 86 729 275 992 561 90 98 111 124 167 204 120 172 220 389 277 605 46
174 61 307 56 505 -5 195 -7 219 -42 374 -118 540 -466 993 -965 1258 -111 59
-324 140 -414 157 -11 2 -37 8 -59 14 -22 6 -62 13 -88 17 -27 3 -59 9 -70 11
-51 12 -387 11 -472 -1z m460 -58 c11 -2 42 -8 68 -11 200 -29 425 -110 622
-224 346 -199 630 -530 779 -908 55 -140 88 -274 115 -464 10 -67 7 -378 -3
-440 -6 -33 -11 -63 -22 -120 -3 -14 -16 -68 -30 -120 -135 -503 -485 -924
-959 -1156 -134 -65 -325 -130 -445 -150 -14 -2 -34 -6 -45 -9 -121 -26 -508
-27 -605 0 -8 2 -31 6 -50 9 -126 19 -340 94 -485 171 -536 282 -884 777 -969
1380 -14 99 -15 393 -1 480 84 538 369 988 808 1276 233 153 519 258 779 285
35 3 65 8 67 10 5 4 353 -4 376 -9z"/>
<path d="M1815 2864 c-232 -56 -419 -241 -481 -474 -15 -58 -17 -131 -18 -664
l-1 -598 40 -27 c43 -30 244 -154 299 -185 l33 -20 169 100 c93 54 178 104
189 109 19 10 20 21 23 255 l2 245 53 13 c164 38 325 168 406 329 99 195 91
431 -21 622 -42 70 -148 176 -221 219 -95 57 -188 83 -307 87 -68 2 -126 -2
-165 -11z"/>
</g>
</svg>
