<?xml version="1.0" standalone="no"?>
<!DOCTYPE svg PUBLIC "-//W3C//DTD SVG 20010904//EN"
 "http://www.w3.org/TR/2001/REC-SVG-20010904/DTD/svg10.dtd">
<svg version="1.0" xmlns="http://www.w3.org/2000/svg"
 width="1735.000000pt" height="1735.000000pt" viewBox="0 0 1735.000000 1735.000000"
 preserveAspectRatio="xMidYMid meet">
<metadata>
Created by potrace 1.14, written by Peter Selinger 2001-2017
</metadata>
<g transform="translate(0.000000,1735.000000) scale(0.100000,-0.100000)"
fill="#000000" stroke="none">
<path d="M8389 16906 c-2 -2 -60 -6 -129 -10 -69 -3 -150 -8 -180 -11 -30 -3
-85 -7 -122 -10 -37 -2 -80 -7 -95 -9 -15 -3 -55 -8 -88 -11 -33 -3 -71 -8
-85 -10 -22 -3 -76 -10 -157 -20 -25 -4 -97 -15 -128 -21 -11 -2 -49 -9 -85
-15 -57 -9 -329 -62 -385 -75 -11 -3 -33 -8 -50 -11 -16 -3 -37 -9 -46 -14 -9
-4 -19 -6 -22 -3 -3 3 -14 1 -24 -4 -10 -6 -31 -12 -48 -15 -34 -7 -32 -6
-180 -46 -298 -81 -773 -243 -980 -336 -16 -7 -58 -25 -92 -39 -148 -62 -498
-231 -652 -315 -173 -96 -206 -114 -346 -199 -447 -271 -874 -589 -1284 -957
-75 -67 -474 -466 -536 -536 -113 -126 -200 -227 -328 -379 -126 -149 -488
-662 -603 -853 -16 -27 -38 -63 -49 -81 -210 -339 -480 -896 -630 -1299 -26
-67 -50 -132 -55 -144 -32 -77 -140 -417 -195 -613 -35 -126 -114 -465 -134
-575 -6 -33 -13 -71 -16 -85 -10 -53 -25 -137 -30 -175 -3 -22 -10 -62 -15
-90 -5 -27 -12 -74 -15 -104 -4 -30 -8 -62 -10 -72 -2 -10 -6 -46 -10 -81 -3
-35 -8 -74 -10 -88 -5 -36 -17 -157 -20 -210 -1 -25 -6 -85 -9 -135 -16 -199
-22 -748 -12 -940 8 -142 17 -282 21 -305 2 -14 6 -56 10 -95 7 -83 14 -147
20 -195 3 -19 8 -55 10 -80 3 -25 8 -63 11 -85 3 -22 7 -49 9 -60 10 -73 18
-122 20 -135 1 -8 6 -35 11 -60 4 -25 8 -47 9 -50 1 -3 5 -25 9 -50 5 -25 10
-54 12 -65 2 -11 7 -33 10 -50 3 -16 14 -70 25 -120 11 -49 22 -101 25 -115
57 -290 285 -1004 414 -1295 10 -22 41 -94 70 -160 130 -299 326 -673 513
-980 93 -152 277 -429 288 -433 5 -2 9 -8 9 -13 0 -6 5 -15 10 -22 6 -7 47
-61 92 -122 44 -60 104 -139 132 -175 28 -36 56 -72 63 -80 235 -301 657 -744
972 -1020 41 -36 79 -70 85 -75 6 -6 36 -30 66 -55 30 -25 57 -47 60 -51 3 -3
59 -48 125 -101 563 -447 1190 -822 1845 -1104 69 -30 133 -59 142 -64 10 -6
23 -10 29 -10 6 0 25 -7 42 -15 46 -21 204 -80 337 -126 345 -120 701 -219
1020 -284 277 -56 365 -71 655 -110 17 -2 59 -7 95 -10 36 -4 76 -8 89 -10 13
-3 61 -7 105 -10 45 -4 101 -8 126 -11 262 -25 989 -24 1240 0 19 2 73 7 120
11 47 3 99 8 115 10 40 5 109 14 170 20 28 4 61 8 75 10 14 2 45 7 70 10 60 8
279 44 310 50 14 3 41 8 60 11 108 18 404 86 565 129 142 39 156 43 183 49 41
10 316 99 419 135 328 117 608 234 908 382 205 101 467 243 620 337 28 17 70
43 95 58 155 94 453 300 595 409 44 34 109 83 145 110 36 27 67 52 70 55 3 3
43 37 90 75 47 38 99 82 115 97 17 15 41 36 55 48 140 118 472 443 651 635
547 589 1063 1365 1409 2120 68 147 223 519 236 565 2 8 25 74 50 145 117 330
263 867 309 1135 3 19 17 96 30 170 28 155 31 175 45 290 6 47 13 96 15 110 2
14 6 54 10 90 4 36 8 76 10 90 2 14 7 63 10 110 4 47 8 101 10 120 25 228 24
915 0 1215 -6 72 -15 174 -20 215 -12 113 -18 167 -20 180 -2 8 -6 44 -10 80
-4 36 -8 67 -10 70 -2 3 -6 37 -10 75 -4 39 -9 73 -11 76 -2 3 -8 34 -13 70
-6 35 -13 74 -15 85 -2 12 -7 37 -10 55 -12 78 -69 335 -102 465 -19 76 -37
149 -40 162 -20 98 -207 674 -249 767 -7 17 -29 72 -49 124 -179 466 -487
1052 -796 1516 -69 103 -247 354 -260 365 -3 3 -25 32 -49 65 -286 386 -652
776 -1145 1220 -225 203 -824 645 -1043 770 -10 6 -79 46 -153 91 -190 114
-312 180 -543 296 -389 194 -851 377 -1257 497 -58 18 -134 40 -170 51 -56 16
-203 55 -250 65 -8 2 -76 17 -150 34 -141 32 -214 48 -265 57 -16 2 -55 9 -85
15 -62 11 -273 45 -337 53 -176 24 -331 41 -473 52 -41 3 -95 8 -120 10 -55 6
-875 15 -881 10z m796 -750 c22 -2 83 -7 135 -11 52 -3 106 -8 120 -10 14 -2
59 -7 100 -10 41 -4 82 -8 90 -10 8 -1 44 -6 80 -10 36 -4 74 -9 85 -11 11 -2
40 -7 65 -10 25 -3 54 -8 65 -10 10 -2 35 -6 55 -9 20 -3 47 -8 60 -10 14 -3
39 -8 55 -10 66 -12 284 -58 340 -72 33 -8 67 -16 75 -18 8 -2 53 -13 100 -25
47 -12 92 -23 100 -25 133 -30 617 -193 815 -276 17 -7 32 -13 35 -14 150 -50
650 -296 915 -450 143 -83 515 -320 557 -355 7 -5 81 -60 163 -121 324 -241
503 -397 816 -709 204 -204 252 -256 416 -445 235 -272 518 -666 718 -1000 68
-114 103 -175 165 -290 49 -91 177 -347 208 -415 11 -25 34 -76 52 -115 30
-66 96 -228 155 -379 94 -242 243 -735 291 -961 2 -11 6 -31 9 -45 3 -14 7
-34 9 -45 3 -11 14 -65 25 -120 11 -55 23 -113 26 -130 2 -16 7 -39 9 -50 6
-34 17 -99 21 -135 3 -19 7 -46 9 -60 3 -14 8 -50 11 -80 3 -30 8 -62 10 -70
2 -8 6 -46 10 -83 3 -37 8 -76 10 -85 1 -9 6 -60 10 -112 4 -52 8 -111 10
-130 8 -83 18 -378 18 -535 -1 -319 -25 -703 -58 -925 -2 -14 -7 -52 -11 -85
-6 -58 -8 -71 -19 -125 -2 -14 -7 -45 -10 -70 -18 -135 -100 -519 -155 -720
-17 -63 -32 -119 -34 -125 -8 -33 -46 -155 -103 -325 -241 -727 -614 -1441
-1082 -2070 -31 -41 -58 -77 -61 -80 -3 -3 -17 -21 -30 -40 -14 -19 -32 -44
-41 -55 -9 -11 -63 -76 -120 -145 -57 -69 -106 -127 -109 -130 -3 -3 -46 -50
-95 -105 -160 -181 -451 -464 -670 -654 -712 -616 -1555 -1099 -2460 -1408
-142 -49 -467 -147 -520 -157 -11 -3 -48 -12 -82 -21 -64 -16 -88 -22 -133
-31 -14 -3 -41 -9 -60 -14 -19 -5 -46 -11 -60 -14 -14 -2 -83 -15 -155 -29
-71 -14 -146 -28 -165 -31 -19 -3 -46 -8 -60 -10 -14 -3 -45 -7 -70 -10 -25
-3 -56 -8 -70 -10 -14 -3 -68 -10 -120 -16 -52 -6 -108 -13 -125 -15 -27 -3
-61 -6 -225 -20 -283 -24 -860 -24 -1130 0 -202 18 -258 24 -420 44 -119 16
-133 18 -405 65 -16 3 -55 10 -85 16 -30 6 -66 14 -80 16 -14 3 -50 11 -80 19
-30 8 -66 16 -80 19 -182 33 -826 233 -987 307 -24 10 -46 19 -49 19 -33 0
-631 279 -809 377 -294 163 -685 411 -846 537 -15 12 -39 30 -55 41 -30 21
-156 119 -189 146 -11 9 -63 52 -115 95 -318 262 -699 638 -916 904 -16 19
-33 40 -39 46 -13 13 -69 82 -127 154 -86 108 -278 369 -278 378 0 6 -4 12 -9
14 -5 1 -56 75 -114 164 -504 771 -858 1619 -1052 2518 -26 122 -28 129 -51
266 -9 52 -18 104 -20 115 -2 10 -6 37 -9 60 -4 22 -8 51 -10 65 -4 25 -10 72
-19 145 -5 35 -12 109 -31 299 -27 268 -27 914 0 1241 6 75 17 182 20 205 2
14 6 48 10 75 13 109 19 153 41 290 16 104 17 108 50 280 14 72 37 177 51 235
14 58 27 114 29 124 25 129 218 734 261 818 7 15 13 29 12 30 0 2 4 16 10 31
6 16 11 31 11 34 0 3 6 19 14 36 8 18 34 77 57 132 76 183 202 446 289 605 98
179 115 209 188 330 129 213 267 419 412 612 36 48 74 99 84 113 11 14 27 34
35 45 9 10 30 35 46 56 145 184 317 375 540 599 203 204 300 293 497 458 961
802 2108 1351 3323 1591 99 19 200 38 225 41 25 3 52 8 60 10 8 2 35 7 60 10
25 3 56 8 70 10 24 4 45 7 160 20 30 4 66 8 80 10 26 4 135 14 230 21 30 2
116 7 190 10 74 4 136 8 138 9 5 5 648 -4 697 -9z"/>
<path d="M8449 15466 c-2 -2 -67 -7 -144 -11 -77 -5 -153 -9 -170 -11 -51 -4
-159 -15 -185 -19 -14 -2 -54 -7 -90 -11 -36 -4 -67 -8 -70 -9 -4 -1 -32 -5
-135 -21 -21 -3 -52 -8 -120 -19 -33 -5 -150 -30 -249 -51 -11 -3 -32 -7 -46
-10 -14 -3 -86 -20 -160 -39 -74 -19 -146 -38 -160 -41 -137 -34 -575 -183
-715 -243 -11 -5 -81 -35 -155 -66 -755 -322 -1519 -841 -2094 -1421 -141
-143 -313 -330 -401 -438 -22 -27 -45 -54 -50 -60 -61 -64 -335 -436 -436
-591 -233 -359 -452 -776 -598 -1140 -18 -44 -36 -89 -41 -100 -63 -133 -258
-762 -283 -912 -3 -15 -12 -57 -21 -93 -8 -36 -18 -81 -21 -100 -3 -19 -10
-53 -15 -75 -5 -22 -11 -56 -15 -75 -3 -19 -10 -57 -15 -85 -5 -27 -14 -88
-20 -135 -6 -47 -13 -96 -15 -110 -3 -14 -7 -45 -9 -70 -3 -25 -8 -70 -12
-100 -9 -85 -11 -106 -30 -390 -4 -66 -4 -521 0 -620 4 -93 14 -242 21 -305 2
-22 7 -71 10 -110 4 -38 8 -77 10 -85 2 -8 7 -44 10 -80 3 -36 8 -72 10 -80 2
-8 7 -35 10 -60 50 -369 182 -890 328 -1290 66 -182 98 -260 209 -510 45 -103
201 -405 273 -530 316 -548 651 -986 1090 -1425 199 -200 282 -276 455 -420
58 -48 114 -94 125 -104 160 -135 586 -425 825 -562 52 -29 109 -62 125 -71
196 -112 587 -292 875 -403 304 -117 864 -274 1105 -311 17 -3 50 -9 75 -14
25 -5 63 -12 85 -15 23 -3 52 -8 65 -10 14 -3 45 -8 70 -11 25 -2 56 -7 70 -9
57 -9 266 -33 365 -41 327 -25 777 -25 1100 1 158 13 178 15 290 29 22 3 60 8
85 11 25 3 56 8 70 10 14 2 43 7 65 10 23 3 52 8 65 10 14 3 39 7 55 10 17 3
41 8 55 10 14 3 36 8 50 10 14 3 41 8 60 11 19 3 43 7 52 10 10 3 30 7 44 10
14 3 56 12 93 20 36 9 73 17 81 19 211 45 777 231 975 320 17 7 57 24 90 38
276 116 664 321 957 508 243 154 620 435 792 589 270 241 469 439 636 630 36
41 68 77 71 80 19 17 218 266 302 378 476 642 824 1339 1057 2116 35 117 107
398 124 486 3 14 7 36 11 50 4 21 12 63 40 210 2 8 6 37 9 64 4 27 9 52 10 55
2 3 7 33 11 66 4 33 9 69 10 80 3 22 13 101 20 153 2 18 6 67 10 110 4 42 8
92 10 111 23 214 23 851 0 1061 -2 19 -6 69 -9 110 -4 41 -9 91 -11 110 -3 19
-7 58 -10 85 -4 28 -8 61 -10 75 -2 14 -7 45 -10 70 -33 238 -142 752 -183
861 -5 13 -10 26 -9 29 0 3 -12 46 -27 95 -63 210 -182 538 -251 690 -8 17
-28 64 -46 105 -150 354 -435 846 -698 1210 -297 409 -689 837 -1047 1142 -15
13 -32 28 -38 33 -82 78 -468 375 -485 375 -5 0 -11 4 -13 8 -4 10 -160 118
-288 199 -311 195 -596 343 -1015 528 -176 77 -684 250 -825 280 -8 2 -42 11
-75 20 -103 29 -468 106 -560 120 -23 3 -50 7 -60 9 -28 5 -92 15 -145 21 -25
3 -52 8 -60 10 -8 2 -49 7 -90 10 -41 4 -82 9 -91 10 -9 2 -57 6 -105 10 -49
4 -114 9 -144 12 -61 5 -726 13 -731 9z m1496 -430 c17 -4 68 -14 115 -23 47
-8 130 -31 185 -50 305 -106 452 -263 440 -471 -4 -85 -38 -214 -76 -293 -16
-33 -29 -61 -29 -63 0 -11 -113 -186 -145 -225 -160 -196 -279 -303 -483 -436
-237 -153 -531 -264 -772 -291 -49 -5 -240 -5 -270 1 -14 2 -38 6 -55 9 -100
18 -181 44 -270 89 -98 49 -156 90 -235 166 l-74 72 -271 -127 c-148 -70 -326
-154 -395 -187 -69 -33 -183 -87 -255 -121 -71 -34 -174 -82 -227 -106 -107
-50 -97 -36 -113 -160 -4 -25 -8 -56 -10 -70 -4 -27 -12 -89 -20 -160 -3 -25
-7 -61 -10 -80 -2 -19 -7 -60 -10 -90 -3 -30 -8 -71 -10 -90 -7 -57 -21 -221
-30 -330 -3 -41 -7 -95 -10 -120 -25 -234 -25 -1136 0 -1269 1 -9 6 -52 9 -96
4 -44 9 -96 12 -115 6 -46 16 -111 19 -130 2 -8 6 -37 9 -65 4 -27 9 -57 11
-65 2 -8 7 -28 10 -45 8 -47 14 -75 19 -93 3 -9 8 -32 11 -51 3 -19 8 -37 10
-41 2 -4 7 -21 10 -38 3 -17 21 -83 40 -146 254 -839 788 -1288 1595 -1343
161 -11 468 -5 570 11 14 2 52 7 85 11 32 4 68 9 80 11 11 2 38 7 60 9 22 3
51 7 65 10 45 9 75 15 105 21 17 3 71 14 120 25 50 11 101 22 115 25 14 3 86
21 160 40 121 32 190 52 485 139 115 35 613 207 858 296 l57 22 -5 46 c-2 25
-7 82 -10 126 -10 143 -15 219 -20 275 -6 80 -15 195 -20 270 -6 93 -17 240
-20 275 -2 17 -3 44 -4 60 -1 29 -4 32 -60 43 -149 31 -291 140 -355 274 -28
58 -37 94 -46 173 -6 55 -12 112 -14 125 -3 14 -7 57 -11 95 -3 39 -8 81 -10
95 -2 14 -7 52 -10 85 -3 33 -8 78 -10 100 -5 40 -10 88 -21 195 -3 30 -7 66
-9 79 -2 13 -7 58 -11 100 -3 42 -8 83 -9 92 -2 9 -6 52 -10 95 -4 43 -9 87
-10 96 -2 9 -6 52 -10 95 -3 43 -8 89 -10 103 -2 14 -7 54 -10 90 -3 36 -8 81
-10 100 -3 19 -7 64 -10 100 -3 36 -8 97 -12 135 -3 39 -7 126 -7 195 -1 109
1 125 16 128 32 6 111 -192 219 -548 54 -179 161 -569 175 -640 3 -14 8 -34
11 -45 4 -11 7 -22 8 -25 2 -18 29 -70 36 -70 5 0 15 12 21 28 19 45 14 588
-8 937 -10 158 -6 302 10 340 19 45 31 55 57 48 33 -9 83 -116 104 -223 2 -8
15 -71 30 -140 15 -69 31 -143 35 -165 49 -237 130 -562 165 -660 27 -73 46
-102 63 -91 7 4 11 126 11 349 0 339 6 581 16 687 2 30 7 84 10 120 13 148 31
230 52 237 24 8 55 -100 94 -326 11 -64 22 -127 24 -141 2 -14 8 -52 14 -85 6
-33 13 -80 16 -104 3 -23 7 -46 9 -50 2 -3 7 -33 11 -66 3 -32 8 -62 10 -65 1
-3 6 -32 10 -65 3 -32 8 -62 10 -65 1 -3 6 -27 9 -55 7 -49 23 -155 31 -206 3
-14 7 -41 9 -60 3 -19 7 -47 10 -64 2 -16 7 -46 10 -65 19 -131 46 -314 50
-337 3 -16 10 -64 16 -108 7 -44 13 -87 15 -95 2 -8 6 -37 10 -65 4 -27 9 -61
11 -75 2 -14 6 -59 8 -100 10 -177 -88 -319 -294 -427 -43 -23 -74 -45 -74
-54 1 -8 13 -71 28 -141 14 -70 28 -140 31 -155 6 -33 10 -53 30 -153 8 -41
17 -86 20 -100 3 -14 9 -47 15 -75 18 -88 20 -99 26 -135 3 -19 9 -51 14 -70
9 -35 20 -88 25 -125 2 -11 18 -90 35 -175 18 -85 34 -166 37 -180 2 -14 36
-182 74 -375 39 -192 73 -361 75 -375 3 -14 32 -158 64 -320 71 -355 69 -343
79 -405 17 -93 4 -151 -51 -233 -53 -78 -121 -127 -215 -155 -48 -14 -148 -16
-199 -4 -98 24 -220 130 -247 214 -9 26 -19 84 -22 128 -3 44 -8 114 -10 155
-3 41 -8 95 -10 120 -3 25 -7 85 -10 133 -3 49 -7 110 -9 135 -3 26 -7 88 -11
137 -3 50 -8 110 -10 135 -2 25 -7 87 -10 139 -11 172 -23 328 -30 406 -3 28
-7 88 -10 134 -3 46 -6 85 -8 87 -2 2 -111 -78 -322 -238 -220 -168 -805 -651
-911 -753 -12 -11 -64 -58 -115 -105 -207 -188 -535 -525 -694 -715 -37 -44
-75 -90 -85 -102 -94 -111 -272 -364 -365 -518 -102 -168 -241 -472 -284 -620
-39 -133 -69 -259 -77 -330 -3 -22 -7 -47 -9 -55 -23 -83 -23 -515 0 -600 2
-8 7 -40 10 -70 20 -169 111 -482 208 -722 105 -255 265 -572 441 -868 43 -74
88 -151 98 -170 11 -19 50 -83 86 -142 37 -59 92 -146 121 -195 57 -91 117
-185 228 -357 35 -54 63 -100 60 -102 -2 -2 -28 5 -58 15 -170 61 -419 179
-627 298 -104 59 -355 218 -386 244 -6 5 -56 42 -111 83 -122 89 -261 202
-375 304 -88 78 -342 331 -395 392 -16 19 -57 66 -90 105 -33 38 -68 79 -78
90 -48 52 -254 335 -340 465 -100 153 -214 347 -296 506 -27 52 -51 91 -54 87
-6 -11 -16 -54 -22 -99 -3 -21 -10 -61 -15 -89 -37 -204 -45 -679 -15 -935 2
-19 9 -80 15 -135 22 -193 77 -491 126 -680 9 -33 17 -67 19 -75 22 -94 127
-432 175 -560 16 -41 31 -86 35 -99 l7 -25 -39 30 c-140 103 -372 335 -518
516 -105 131 -295 405 -295 426 0 6 -4 12 -8 14 -12 5 -122 207 -197 363 -81
168 -177 404 -233 575 -92 274 -77 226 -147 495 -34 130 -78 326 -95 420 -5
28 -11 61 -14 75 -13 66 -42 246 -51 310 -3 25 -8 56 -10 70 -3 14 -7 48 -10
75 -3 28 -7 59 -9 70 -3 18 -9 66 -21 185 -2 19 -7 64 -10 100 -3 36 -8 81
-10 100 -4 35 -14 177 -20 292 -27 475 -23 1149 9 1603 4 55 9 123 11 150 4
65 15 198 21 255 2 25 7 74 10 110 2 36 7 81 9 100 3 19 7 60 10 90 3 30 7 71
10 90 2 19 7 60 10 90 6 55 13 114 20 160 2 14 6 50 10 80 4 30 8 66 10 80 2
14 15 104 29 200 15 96 28 186 31 200 2 13 7 42 10 65 3 22 21 126 40 230 19
105 37 206 40 225 3 19 10 53 15 75 5 22 11 54 14 70 8 45 73 350 90 425 8 36
17 76 19 90 14 75 165 657 222 855 37 127 68 235 69 240 2 6 5 17 9 25 3 8 28
89 57 180 28 91 57 181 65 200 7 19 30 82 50 140 55 158 121 331 175 462 36
87 44 115 32 110 -20 -9 -110 -52 -257 -122 -57 -27 -132 -63 -167 -79 -91
-42 -219 -102 -328 -154 -52 -24 -147 -69 -210 -99 -63 -30 -133 -63 -155 -74
-62 -30 -174 -26 -247 8 -203 94 -276 360 -148 536 60 83 30 71 1040 412 47
16 285 97 530 180 245 83 598 203 785 266 187 64 389 133 450 153 l109 37 2
56 c1 31 5 77 8 102 4 25 7 47 6 48 -1 2 3 15 9 31 6 15 13 38 15 50 6 35 58
160 73 178 7 8 13 19 13 23 0 16 102 153 152 206 115 119 231 201 413 289 159
78 331 135 500 166 58 11 63 12 140 20 39 4 72 9 74 11 6 5 354 -4 386 -10z
m-1020 -4112 c262 -51 503 -231 638 -476 34 -61 82 -199 92 -263 5 -27 10 -57
12 -65 5 -26 4 -193 -2 -235 -4 -22 -11 -58 -17 -80 -5 -22 -11 -47 -13 -55
-7 -36 -50 -137 -82 -193 -82 -146 -197 -264 -338 -350 -67 -40 -193 -93 -245
-102 -18 -3 -36 -8 -40 -10 -3 -2 -33 -7 -65 -11 -300 -36 -581 60 -790 270
-312 315 -360 795 -116 1171 204 314 589 473 966 399z"/>
</g>
</svg>
