<?xml version="1.0" standalone="no"?>
<!DOCTYPE svg PUBLIC "-//W3C//DTD SVG 20010904//EN"
 "http://www.w3.org/TR/2001/REC-SVG-20010904/DTD/svg10.dtd">
<svg version="1.0" xmlns="http://www.w3.org/2000/svg"
 width="1111.000000pt" height="1111.000000pt" viewBox="0 0 1111.000000 1111.000000"
 preserveAspectRatio="xMidYMid meet">
<metadata>
Created by potrace 1.14, written by Peter Selinger 2001-2017
</metadata>
<g transform="translate(0.000000,1111.000000) scale(0.100000,-0.100000)"
fill="#000000" stroke="none">
<path d="M5726 9548 c-2 -7 -14 -76 -25 -153 -53 -351 -156 -699 -277 -935
-210 -412 -470 -582 -823 -540 -231 28 -448 124 -694 307 -126 94 -425 392
-527 525 -41 54 -75 96 -76 95 -1 -1 -7 -54 -13 -117 -60 -603 -203 -1070
-419 -1367 -33 -46 -55 -66 -81 -74 -114 -36 -291 -135 -459 -254 -42 -30
-153 -40 -362 -32 -298 12 -687 99 -1034 231 -66 25 -121 44 -123 42 -2 -2 57
-88 131 -192 428 -601 676 -1139 676 -1468 0 -151 -43 -258 -145 -361 -137
-140 -334 -235 -639 -310 -198 -48 -511 -92 -676 -96 l-55 -1 40 -9 c22 -4 66
-8 97 -8 31 -1 110 -8 175 -16 740 -94 1185 -367 1319 -810 25 -81 27 -105 28
-245 0 -136 -3 -167 -26 -250 -63 -231 -212 -491 -398 -695 -30 -33 -64 -71
-75 -84 -22 -28 -35 -37 133 96 288 228 645 410 893 458 115 21 277 20 371 -4
256 -66 473 -284 566 -571 40 -122 53 -204 59 -376 7 -222 -6 -349 -62 -611
-4 -15 20 22 53 83 228 424 491 719 757 849 118 58 198 77 315 77 348 1 646
-235 801 -631 52 -134 95 -300 111 -436 7 -58 16 -105 20 -105 7 0 11 12 42
136 9 33 36 120 61 192 138 404 331 697 558 849 140 94 265 128 442 120 227
-10 435 -92 630 -247 75 -60 218 -204 286 -290 64 -80 175 -249 209 -318 14
-29 27 -52 30 -52 3 0 4 81 1 181 -5 284 28 556 95 770 61 195 185 399 303
498 49 40 70 50 151 70 102 25 199 60 325 115 l80 36 170 0 c182 0 282 -9 467
-40 280 -48 631 -149 932 -269 43 -18 80 -30 82 -28 2 2 -26 23 -62 46 -170
112 -356 292 -453 440 -153 233 -186 464 -102 708 46 132 105 227 206 329 95
95 157 140 271 198 226 113 488 165 837 167 106 0 188 2 182 5 -5 2 -77 15
-160 29 -660 111 -1177 359 -1383 662 -72 106 -85 140 -93 245 -4 54 -17 131
-28 173 -25 90 -26 116 -6 227 32 186 122 381 258 565 104 140 311 344 464
458 67 49 120 91 119 92 -1 2 -45 -15 -97 -38 -126 -55 -387 -142 -534 -178
-449 -111 -777 -104 -1019 22 -91 47 -209 156 -273 252 -181 269 -303 720
-329 1213 -4 72 -10 132 -13 132 -3 0 -17 -21 -31 -47 -93 -175 -281 -423
-436 -574 -229 -223 -432 -322 -660 -321 -87 1 -116 5 -187 30 -47 16 -116 49
-154 75 -91 61 -223 199 -302 317 -150 224 -316 632 -397 974 -16 71 -30 93
-38 64z m62 -313 c167 -614 402 -1075 642 -1260 150 -116 299 -139 484 -75
255 87 592 410 877 838 l94 141 7 -162 c35 -774 195 -1297 449 -1466 122 -81
243 -107 462 -98 283 12 671 120 1060 296 37 16 67 29 67 27 0 -2 -44 -36 -97
-77 -54 -40 -175 -150 -268 -244 -175 -175 -262 -284 -351 -442 l-46 -83 -62
57 c-33 31 -62 59 -64 63 -10 26 284 329 427 440 46 36 93 73 105 82 12 10
-24 -2 -79 -26 -143 -63 -353 -140 -477 -176 -206 -59 -418 -94 -473 -78 -72
21 -220 48 -305 54 -83 6 -97 10 -134 38 -198 152 -333 559 -376 1136 -5 74
-10 181 -10 238 0 56 -3 102 -7 102 -5 0 -38 -46 -74 -103 -272 -418 -597
-727 -841 -800 -29 -9 -54 -11 -76 -5 -19 5 -96 19 -172 32 -123 20 -143 27
-179 55 -199 158 -414 578 -555 1086 -26 94 -50 177 -53 185 -3 8 -23 -66 -44
-165 -94 -448 -222 -800 -377 -1040 -71 -111 -194 -227 -285 -271 -133 -63
-290 -57 -482 16 -271 105 -643 401 -940 749 l-80 94 -6 -259 c-8 -299 -28
-494 -70 -676 l-11 -48 -56 0 c-32 0 -97 -5 -146 -10 -49 -6 -90 -9 -92 -7 -2
2 5 30 16 63 84 243 128 554 139 982 l6 253 138 -156 c361 -406 769 -707 1078
-795 105 -30 256 -37 339 -16 295 76 538 442 725 1094 43 147 109 434 122 528
3 24 7 43 8 42 1 -2 21 -70 43 -153z m734 -1621 c439 -61 823 -247 1112 -538
l68 -69 -88 -29 c-129 -41 -299 -128 -394 -199 -67 -51 -79 -64 -64 -69 12 -5
40 7 87 38 151 97 346 173 549 214 92 18 146 22 288 22 201 0 315 -17 477 -69
192 -63 355 -157 482 -279 117 -113 186 -220 232 -362 33 -98 33 -250 1 -354
-107 -344 -466 -565 -1057 -649 -77 -11 -178 -23 -224 -26 -65 -6 -80 -10 -66
-18 25 -14 310 -2 445 18 58 9 157 29 220 46 l115 30 47 -53 c108 -120 205
-286 246 -419 179 -583 -259 -1164 -1008 -1338 -249 -58 -622 -58 -857 1 l-42
10 28 42 c41 59 80 140 107 220 29 83 29 81 6 83 -12 1 -31 -26 -67 -95 -156
-301 -402 -532 -738 -692 -283 -134 -551 -197 -889 -207 -535 -16 -967 122
-1363 437 -94 75 -285 280 -285 306 0 5 29 19 64 32 79 28 206 106 275 168 64
58 137 158 162 224 23 60 23 66 4 74 -10 3 -29 -17 -60 -66 -159 -245 -433
-391 -761 -405 -306 -14 -574 87 -749 279 -106 118 -157 241 -159 383 0 95 15
166 57 258 24 54 28 70 18 80 -10 9 -19 5 -41 -22 -41 -48 -87 -139 -104 -202
l-14 -54 -58 3 c-141 6 -393 90 -523 174 -66 43 -201 163 -201 180 0 5 -18 39
-40 75 -22 37 -49 92 -61 122 -11 31 -25 58 -30 61 -17 11 -26 123 -12 150 7
14 13 39 13 55 1 126 111 326 238 432 31 27 63 56 70 65 7 10 41 33 75 52 162
90 396 145 615 146 101 0 133 11 70 24 -125 25 -326 15 -483 -25 l-80 -21 -38
44 c-77 87 -139 210 -152 299 -7 50 15 198 40 274 25 72 57 133 119 224 30 43
52 81 50 84 -7 6 76 97 89 97 7 0 41 25 77 56 36 31 95 77 133 102 37 24 67
49 67 54 0 4 19 17 43 27 408 183 659 235 1000 210 301 -22 552 -104 780 -256
172 -114 299 -257 347 -391 19 -53 22 -76 18 -157 -4 -75 -2 -95 9 -99 27 -11
48 61 48 164 0 86 -3 101 -32 163 -18 37 -47 88 -64 112 l-32 44 86 99 c279
322 677 529 1161 602 158 24 443 26 598 4z m-5406 -513 c317 -97 780 -194
1023 -213 l34 -3 -34 -42 c-19 -23 -43 -42 -53 -42 -32 -1 -309 66 -491 118
-93 27 -172 48 -174 46 -2 -2 37 -48 86 -102 114 -125 250 -284 334 -393 l66
-85 6 -90 c9 -153 70 -282 183 -390 l54 -52 -96 -47 c-53 -26 -98 -45 -99 -44
-1 2 -21 48 -45 103 -122 289 -422 712 -806 1137 -112 124 -128 145 -101 135
8 -3 58 -19 113 -36z m8355 -1544 c197 -140 480 -254 766 -309 l118 -22 -115
-12 c-427 -43 -757 -271 -925 -637 -46 -102 -65 -188 -65 -299 0 -157 47 -297
153 -453 55 -80 204 -234 289 -297 38 -28 67 -52 66 -54 -2 -1 -66 17 -143 42
-277 88 -658 172 -869 190 -101 9 -104 14 -46 58 l49 38 58 -12 c108 -21 377
-92 498 -131 134 -42 134 -47 -2 63 -39 32 -96 86 -126 120 -64 73 -167 233
-167 259 0 9 14 48 31 86 51 113 79 240 79 361 0 57 -5 133 -12 167 l-11 63
36 49 c44 60 157 169 220 212 75 51 224 117 316 141 46 12 135 26 199 32 l115
12 -127 23 c-256 47 -549 164 -705 282 l-25 19 58 63 c32 35 65 76 74 91 l16
27 66 -63 c37 -35 96 -83 131 -109z m-7911 -521 c0 -13 3 -37 6 -53 6 -29 5
-30 -52 -42 -32 -8 -107 -21 -167 -31 -118 -19 -145 -30 -76 -30 63 -1 181
-23 281 -54 85 -26 85 -26 137 -96 97 -129 237 -235 403 -304 73 -30 86 -40
109 -78 132 -223 149 -505 44 -743 -29 -64 -120 -208 -151 -238 -11 -10 -68
-45 -129 -78 -60 -33 -156 -91 -212 -129 l-103 -69 59 68 c109 127 175 240
222 381 26 79 32 116 36 219 4 79 1 149 -7 194 -75 419 -419 740 -924 862 -54
14 -132 27 -173 31 -40 4 -72 8 -70 10 2 2 68 15 148 28 174 30 365 82 496
135 118 47 123 48 123 17z m1558 -1400 c40 -14 105 -33 144 -42 166 -34 300
-209 353 -459 33 -155 22 -437 -25 -658 -17 -79 -27 -99 -100 -208 -44 -66
-98 -154 -121 -195 -23 -41 -43 -73 -45 -72 -2 2 8 46 21 98 56 219 70 330 69
565 0 205 -2 227 -26 317 -63 231 -182 384 -370 473 -171 82 -401 85 -645 10
-42 -13 -78 -23 -80 -22 -6 7 142 80 246 122 176 70 334 106 451 101 30 -2 88
-15 128 -30z m4523 -226 l58 0 -25 -37 c-137 -200 -208 -533 -202 -946 2 -119
1 -217 -2 -217 -3 1 -21 24 -41 53 -69 98 -196 242 -313 354 -187 180 -370
306 -542 373 l-90 35 84 48 84 48 51 -32 c163 -100 420 -341 556 -521 41 -54
74 -98 75 -98 1 0 1 102 1 227 0 167 5 258 18 338 19 126 58 277 87 343 l20
45 62 -7 c33 -3 87 -6 119 -6z m-3282 -314 c65 -41 241 -126 335 -163 50 -19
158 -52 240 -73 l150 -37 28 -49 c90 -153 191 -442 214 -614 8 -59 19 -64 29
-12 23 127 193 567 243 628 13 17 33 23 86 29 l69 7 -41 -49 c-141 -168 -303
-514 -392 -837 l-33 -119 -24 117 c-52 258 -179 568 -300 731 -219 295 -516
395 -798 270 -84 -37 -217 -128 -299 -204 -84 -79 -61 -42 58 91 119 134 232
229 341 287 49 26 47 26 94 -3z"/>
<path d="M6535 6799 c-66 -9 -264 -102 -347 -164 l-47 -35 84 -132 c46 -73 92
-144 102 -158 10 -14 35 -52 57 -85 21 -33 40 -62 42 -64 2 -3 28 5 57 17 97
40 176 55 260 49 77 -5 79 -5 74 16 -44 189 -45 211 -16 380 24 140 25 137
-66 162 -72 20 -132 24 -200 14z"/>
<path d="M4210 6756 c-52 -18 -127 -49 -167 -69 l-72 -37 60 -172 c33 -95 75
-221 95 -280 l35 -107 52 17 c70 22 265 22 323 0 l41 -16 6 146 c5 154 23 236
81 377 l25 60 -26 27 c-14 14 -53 39 -86 54 -53 24 -77 29 -167 31 -97 2 -112
0 -200 -31z"/>
<path d="M6590 6191 c-73 -24 -134 -55 -197 -102 -63 -47 -71 -83 -27 -118 38
-30 56 -27 128 23 114 78 168 86 403 60 46 -5 53 -3 66 18 27 41 12 74 -47 97
-112 45 -231 53 -326 22z"/>
<path d="M4275 6089 c-86 -16 -172 -49 -235 -90 l-61 -39 3 -48 c3 -43 6 -49
39 -66 l36 -20 74 37 c101 49 155 61 250 54 63 -4 93 -12 151 -41 40 -20 87
-36 104 -36 40 0 74 36 74 77 0 58 -124 140 -255 168 -78 16 -107 17 -180 4z"/>
<path d="M6760 6044 c-138 -20 -174 -30 -266 -74 -176 -83 -288 -171 -383
-301 -31 -42 -63 -90 -72 -106 -15 -28 -22 -30 -86 -36 -270 -22 -445 -158
-498 -385 -13 -56 -13 -67 5 -136 22 -89 38 -121 77 -160 47 -47 98 -57 177
-35 53 15 91 58 106 118 14 60 2 111 -39 168 l-30 41 50 21 c27 12 63 24 80
28 l32 6 -7 -44 c-24 -139 -22 -387 4 -504 22 -96 63 -211 108 -300 81 -162
216 -267 389 -302 71 -15 95 -16 192 -5 227 25 379 90 501 212 87 86 136 171
173 300 l25 85 64 26 c127 52 203 116 247 209 49 106 28 264 -47 344 -57 61
-159 83 -225 50 -94 -49 -145 -118 -154 -209 -5 -48 -9 -56 -30 -61 -54 -14
-142 38 -368 221 -163 131 -264 204 -319 230 -41 20 -41 19 26 118 83 123 203
189 368 203 67 6 78 4 103 -16 15 -12 34 -35 42 -50 14 -28 14 -30 -7 -41 -13
-7 -43 -13 -68 -14 -90 -2 -186 -89 -204 -184 -13 -69 41 -173 106 -207 41
-21 121 -21 176 1 56 23 133 110 180 203 31 64 36 85 40 161 11 230 -122 388
-352 420 -43 6 -80 10 -84 10 -4 -1 -18 -3 -32 -5z m-246 -1007 c65 -63 225
-196 281 -234 33 -23 93 -58 134 -79 l74 -37 -29 -24 c-43 -34 -98 -46 -204
-41 -82 3 -102 7 -142 31 -58 34 -94 76 -129 152 -30 66 -59 190 -59 256 l0
42 22 -19 c12 -10 36 -32 52 -47z"/>
<path d="M4175 5841 c-329 -115 -515 -319 -603 -661 -29 -116 -41 -358 -23
-491 35 -267 137 -435 304 -502 126 -51 314 -61 426 -23 304 104 448 289 439
564 -3 84 -4 87 -31 100 -45 22 -76 6 -157 -78 -117 -120 -210 -155 -305 -115
-47 19 -143 111 -161 153 -42 102 -67 434 -39 537 32 119 101 200 227 265 133
70 231 65 278 -12 25 -41 11 -62 -34 -54 -37 7 -138 -37 -173 -75 -25 -28 -43
-70 -43 -103 0 -34 58 -144 83 -158 12 -7 54 -12 92 -12 138 -1 215 75 261
258 29 116 -1 259 -69 335 -92 100 -299 132 -472 72z"/>
<path d="M4836 5766 c3 -14 18 -123 34 -243 26 -206 27 -236 25 -548 -3 -334
-11 -419 -51 -603 -9 -40 -15 -75 -13 -76 5 -5 563 -114 567 -111 2 1 -13 54
-32 116 -74 247 -101 455 -93 714 8 252 51 445 148 669 21 50 39 94 39 99 0 4
-142 7 -315 7 l-315 0 6 -24z"/>
</g>
</svg>
